<svg width="21" height="21" viewBox="0 0 21 21" fill="none" xmlns="http://www.w3.org/2000/svg">
<path d="M11.3995 1.75089C12.038 1.74844 12.6766 1.75486 13.3149 1.77014L13.4846 1.77627C13.6806 1.78327 13.874 1.79202 14.1076 1.80252C15.0386 1.84627 15.6739 1.99327 16.2313 2.20939C16.8088 2.43164 17.2953 2.73264 17.7818 3.21914C18.2266 3.6563 18.5709 4.1851 18.7906 4.76877C19.0068 5.32614 19.1538 5.96227 19.1975 6.89327C19.208 7.12602 19.2168 7.32027 19.2238 7.51627L19.229 7.68602C19.2446 8.32406 19.2513 8.96229 19.2491 9.60052L19.25 10.2533V11.3995C19.2522 12.038 19.2455 12.6766 19.2299 13.3149L19.2246 13.4846C19.2176 13.6806 19.2089 13.874 19.1984 14.1076C19.1546 15.0386 19.0059 15.6739 18.7906 16.2313C18.5716 16.8156 18.2272 17.3448 17.7818 17.7818C17.3442 18.2265 16.8152 18.5708 16.2313 18.7906C15.6739 19.0068 15.0386 19.1538 14.1076 19.1975C13.874 19.208 13.6806 19.2168 13.4846 19.2238L13.3149 19.229C12.6766 19.2446 12.038 19.2513 11.3995 19.2491L10.7468 19.25H9.60139C8.96287 19.2522 8.32435 19.2455 7.68602 19.2299L7.51627 19.2246C7.30855 19.2171 7.10088 19.2084 6.89327 19.1984C5.96227 19.1546 5.32702 19.0059 4.76877 18.7906C4.18486 18.5713 3.65597 18.227 3.21914 17.7818C2.77381 17.3445 2.42921 16.8154 2.20939 16.2313C1.99327 15.6739 1.84627 15.0386 1.80252 14.1076C1.79277 13.9 1.78402 13.6924 1.77627 13.4846L1.77189 13.3149C1.75576 12.6766 1.74847 12.038 1.75002 11.3995V9.60052C1.74757 8.96229 1.75399 8.32407 1.76927 7.68602L1.77539 7.51627C1.78239 7.32027 1.79114 7.12602 1.80164 6.89327C1.84539 5.96139 1.99239 5.32702 2.20852 4.76877C2.42847 4.18481 2.77374 3.65616 3.22002 3.22002C3.65655 2.77443 4.18511 2.42952 4.76877 2.20939C5.32702 1.99327 5.96139 1.84627 6.89327 1.80252L7.51627 1.77627L7.68602 1.77189C8.32405 1.75577 8.96228 1.74848 9.60052 1.75002L11.3995 1.75089ZM10.5 6.12589C9.92033 6.11769 9.3448 6.22479 8.80687 6.44095C8.26894 6.65712 7.77933 6.97804 7.36651 7.38507C6.95368 7.79209 6.62587 8.27711 6.40212 8.81194C6.17837 9.34676 6.06315 9.92072 6.06315 10.5005C6.06315 11.0802 6.17837 11.6542 6.40212 12.189C6.62587 12.7238 6.95368 13.2088 7.36651 13.6158C7.77933 14.0229 8.26894 14.3438 8.80687 14.56C9.3448 14.7761 9.92033 14.8832 10.5 14.875C11.6603 14.875 12.7731 14.4141 13.5936 13.5936C14.4141 12.7731 14.875 11.6603 14.875 10.5C14.875 9.3397 14.4141 8.2269 13.5936 7.40643C12.7731 6.58595 11.6603 6.12589 10.5 6.12589ZM10.5 7.87589C10.8487 7.86947 11.1952 7.93259 11.5192 8.06157C11.8432 8.19056 12.1383 8.38282 12.3872 8.62712C12.6361 8.87142 12.8338 9.16287 12.9688 9.48444C13.1038 9.80601 13.1733 10.1513 13.1734 10.5C13.1734 10.8488 13.104 11.194 12.9691 11.5156C12.8342 11.8373 12.6366 12.1288 12.3878 12.3732C12.139 12.6175 11.844 12.8099 11.52 12.939C11.196 13.0681 10.8496 13.1313 10.5009 13.125C9.8047 13.125 9.13702 12.8485 8.64474 12.3562C8.15245 11.8639 7.87589 11.1962 7.87589 10.5C7.87589 9.80383 8.15245 9.13615 8.64474 8.64386C9.13702 8.15158 9.8047 7.87502 10.5009 7.87502L10.5 7.87589ZM15.0938 4.81339C14.8115 4.82469 14.5445 4.94478 14.3488 5.14849C14.1531 5.35221 14.0438 5.62376 14.0438 5.90627C14.0438 6.18878 14.1531 6.46033 14.3488 6.66404C14.5445 6.86776 14.8115 6.98785 15.0938 6.99914C15.3838 6.99914 15.662 6.88391 15.8672 6.67879C16.0723 6.47367 16.1875 6.19547 16.1875 5.90539C16.1875 5.61531 16.0723 5.33711 15.8672 5.132C15.662 4.92688 15.3838 4.81164 15.0938 4.81164V4.81339Z" fill="white"/>
</svg>
